<mxfile host="app.diagrams.net" modified="2024-03-29T21:52:34.672Z" agent="Mozilla/5.0 (Windows NT 10.0; Win64; x64) AppleWebKit/537.36 (KHTML, like Gecko) Chrome/123.0.0.0 Safari/537.36" etag="bCqq10_9q4_RmIhZT_T4" version="24.2.1" type="device">
  <diagram name="Page-1" id="2YBvvXClWsGukQMizWep">
    <mxGraphModel dx="3875" dy="3220" grid="1" gridSize="10" guides="1" tooltips="1" connect="1" arrows="1" fold="1" page="1" pageScale="1" pageWidth="850" pageHeight="1100" math="0" shadow="0">
      <root>
        <mxCell id="0" />
        <mxCell id="1" parent="0" />
        <mxCell id="8WOhdFGJpGClGAThh-gr-1" value="Cliente&lt;span style=&quot;white-space: pre;&quot;&gt;&#x9;&lt;/span&gt;" style="text;html=1;align=center;verticalAlign=middle;resizable=0;points=[];autosize=1;strokeColor=none;fillColor=none;labelBackgroundColor=none;" parent="1" vertex="1">
          <mxGeometry x="-1650" y="-990" width="80" height="30" as="geometry" />
        </mxCell>
        <mxCell id="diKH7t9uhdvl2OTYyAan-5" style="edgeStyle=orthogonalEdgeStyle;rounded=0;orthogonalLoop=1;jettySize=auto;html=1;entryX=1;entryY=0.5;entryDx=0;entryDy=0;exitX=0.5;exitY=1;exitDx=0;exitDy=0;" parent="1" source="8WOhdFGJpGClGAThh-gr-9" target="8WOhdFGJpGClGAThh-gr-17" edge="1">
          <mxGeometry relative="1" as="geometry" />
        </mxCell>
        <mxCell id="8WOhdFGJpGClGAThh-gr-12" value="" style="endArrow=classic;html=1;rounded=0;exitX=1;exitY=0.5;exitDx=0;exitDy=0;labelBackgroundColor=none;fontColor=default;" parent="1" source="8WOhdFGJpGClGAThh-gr-6" target="8WOhdFGJpGClGAThh-gr-8" edge="1">
          <mxGeometry width="50" height="50" relative="1" as="geometry">
            <mxPoint x="-1120" y="-365" as="sourcePoint" />
            <mxPoint x="-1070" y="-415" as="targetPoint" />
          </mxGeometry>
        </mxCell>
        <mxCell id="8WOhdFGJpGClGAThh-gr-14" value="" style="endArrow=classic;html=1;rounded=0;labelBackgroundColor=none;fontColor=default;" parent="1" source="8WOhdFGJpGClGAThh-gr-8" target="8WOhdFGJpGClGAThh-gr-10" edge="1">
          <mxGeometry width="50" height="50" relative="1" as="geometry">
            <mxPoint x="-900" y="-383" as="sourcePoint" />
            <mxPoint x="-860" y="-387" as="targetPoint" />
          </mxGeometry>
        </mxCell>
        <mxCell id="8WOhdFGJpGClGAThh-gr-15" value="" style="endArrow=classic;html=1;rounded=0;labelBackgroundColor=none;fontColor=default;" parent="1" source="8WOhdFGJpGClGAThh-gr-10" target="8WOhdFGJpGClGAThh-gr-9" edge="1">
          <mxGeometry width="50" height="50" relative="1" as="geometry">
            <mxPoint x="-1050" y="-365" as="sourcePoint" />
            <mxPoint x="-1010" y="-369" as="targetPoint" />
          </mxGeometry>
        </mxCell>
        <mxCell id="Xush0R4FDbhnRSaMg2tl-23" style="edgeStyle=orthogonalEdgeStyle;rounded=0;orthogonalLoop=1;jettySize=auto;html=1;exitX=0.5;exitY=1;exitDx=0;exitDy=0;labelBackgroundColor=none;fontColor=default;" parent="1" edge="1">
          <mxGeometry relative="1" as="geometry">
            <mxPoint x="-1540" y="490" as="sourcePoint" />
            <mxPoint x="-1540" y="490" as="targetPoint" />
          </mxGeometry>
        </mxCell>
        <mxCell id="diKH7t9uhdvl2OTYyAan-1" value="" style="shape=umlLifeline;perimeter=lifelinePerimeter;whiteSpace=wrap;html=1;container=1;dropTarget=0;collapsible=0;recursiveResize=0;outlineConnect=0;portConstraint=eastwest;newEdgeStyle={&quot;curved&quot;:0,&quot;rounded&quot;:0};participant=umlActor;" parent="1" vertex="1">
          <mxGeometry x="-1620" y="-960" width="20" height="320" as="geometry" />
        </mxCell>
        <mxCell id="diKH7t9uhdvl2OTYyAan-2" value="GUI" style="shape=umlLifeline;perimeter=lifelinePerimeter;whiteSpace=wrap;html=1;container=1;dropTarget=0;collapsible=0;recursiveResize=0;outlineConnect=0;portConstraint=eastwest;newEdgeStyle={&quot;curved&quot;:0,&quot;rounded&quot;:0};" parent="1" vertex="1">
          <mxGeometry x="-1460" y="-960" width="100" height="320" as="geometry" />
        </mxCell>
        <mxCell id="diKH7t9uhdvl2OTYyAan-3" value="Backend" style="shape=umlLifeline;perimeter=lifelinePerimeter;whiteSpace=wrap;html=1;container=1;dropTarget=0;collapsible=0;recursiveResize=0;outlineConnect=0;portConstraint=eastwest;newEdgeStyle={&quot;curved&quot;:0,&quot;rounded&quot;:0};" parent="1" vertex="1">
          <mxGeometry x="-1260" y="-960" width="100" height="320" as="geometry" />
        </mxCell>
        <mxCell id="diKH7t9uhdvl2OTYyAan-4" value="Database" style="shape=umlLifeline;perimeter=lifelinePerimeter;whiteSpace=wrap;html=1;container=1;dropTarget=0;collapsible=0;recursiveResize=0;outlineConnect=0;portConstraint=eastwest;newEdgeStyle={&quot;curved&quot;:0,&quot;rounded&quot;:0};" parent="1" vertex="1">
          <mxGeometry x="-1060" y="-960" width="100" height="320" as="geometry" />
        </mxCell>
        <mxCell id="8WOhdFGJpGClGAThh-gr-6" value="Login" style="whiteSpace=wrap;html=1;labelBackgroundColor=none;" parent="1" vertex="1">
          <mxGeometry x="-1670" y="-880" width="120" height="40" as="geometry" />
        </mxCell>
        <mxCell id="8WOhdFGJpGClGAThh-gr-8" value="encapsula, valida campos en blanco" style="whiteSpace=wrap;html=1;labelBackgroundColor=none;" parent="1" vertex="1">
          <mxGeometry x="-1470" y="-890" width="120" height="60" as="geometry" />
        </mxCell>
        <mxCell id="8WOhdFGJpGClGAThh-gr-10" value="Comunica con la base de datos&lt;span style=&quot;white-space: pre;&quot;&gt;&#x9;&lt;/span&gt;" style="whiteSpace=wrap;html=1;labelBackgroundColor=none;" parent="1" vertex="1">
          <mxGeometry x="-1270" y="-890" width="120" height="60" as="geometry" />
        </mxCell>
        <mxCell id="8WOhdFGJpGClGAThh-gr-9" value="Verifica si el usuario existe en la base de datos&amp;nbsp;" style="whiteSpace=wrap;html=1;labelBackgroundColor=none;" parent="1" vertex="1">
          <mxGeometry x="-1070" y="-890" width="120" height="60" as="geometry" />
        </mxCell>
        <mxCell id="8WOhdFGJpGClGAThh-gr-17" value="Mensaje de valido o invalido" style="whiteSpace=wrap;html=1;labelBackgroundColor=none;" parent="1" vertex="1">
          <mxGeometry x="-1470" y="-810" width="120" height="60" as="geometry" />
        </mxCell>
      </root>
    </mxGraphModel>
  </diagram>
</mxfile>
